{
    "accessors": {
        "accessor_100": {
            "bufferView": "bufferView_115",
            "byteOffset": 7752,
            "byteStride": 2,
            "componentType": 5120,
            "count": 15,
            "max": [
                127,
                127
            ],
            "min": [
                -127,
                -94
            ],
            "type": "VEC2"
        },
        "accessor_110": {
            "bufferView": "bufferView_114",
            "byteOffset": 60,
            "byteStride": 0,
            "componentType": 5123,
            "count": 998,
            "type": "SCALAR"
        },
        "accessor_112": {
            "bufferView": "bufferView_115",
            "byteOffset": 140,
            "byteStride": 12,
            "componentType": 5126,
            "count": 500,
            "max": [
                9.855949401855469,
                2,
                2
            ],
            "min": [
                0,
                -2,
                -2
            ],
            "type": "VEC3"
        },
        "accessor_16": {
            "bufferView": "bufferView_114",
            "byteOffset": 3142,
            "byteStride": 0,
            "componentType": 5123,
            "count": 468,
            "type": "SCALAR"
        },
        "accessor_18": {
            "bufferView": "bufferView_115",
            "byteOffset": 7784,
            "byteStride": 12,
            "componentType": 5126,
            "count": 162,
            "max": [
                70,
                9.991889953613281,
                10
            ],
            "min": [
                15.00409984588623,
                -9.991889953613281,
                -9.967569351196289
            ],
            "type": "VEC3"
        },
        "accessor_20": {
            "bufferView": "bufferView_115",
            "byteOffset": 9728,
            "byteStride": 2,
            "componentType": 5120,
            "count": 162,
            "max": [
                127,
                119
            ],
            "min": [
                -118,
                -119
            ],
            "type": "VEC2"
        },
        "accessor_36": {
            "bufferView": "bufferView_114",
            "byteOffset": 0,
            "byteStride": 0,
            "componentType": 5123,
            "count": 30,
            "type": "SCALAR"
        },
        "accessor_38": {
            "bufferView": "bufferView_115",
            "byteOffset": 0,
            "byteStride": 12,
            "componentType": 5126,
            "count": 10,
            "max": [
                10,
                5,
                3
            ],
            "min": [
                0,
                -5,
                0
            ],
            "type": "VEC3"
        },
        "accessor_40": {
            "bufferView": "bufferView_115",
            "byteOffset": 120,
            "byteStride": 2,
            "componentType": 5120,
            "count": 10,
            "max": [
                100,
                127
            ],
            "min": [
                0,
                -127
            ],
            "type": "VEC2"
        },
        "accessor_56": {
            "bufferView": "bufferView_114",
            "byteOffset": 2056,
            "byteStride": 0,
            "componentType": 5123,
            "count": 3,
            "type": "SCALAR"
        },
        "accessor_58": {
            "bufferView": "bufferView_115",
            "byteOffset": 6140,
            "byteStride": 12,
            "componentType": 5126,
            "count": 3,
            "max": [
                4,
                4,
                4
            ],
            "min": [
                0,
                0,
                -5
            ],
            "type": "VEC3"
        },
        "accessor_60": {
            "bufferView": "bufferView_115",
            "byteOffset": 6176,
            "byteStride": 2,
            "componentType": 5120,
            "count": 3,
            "max": [
                -67,
                -30
            ],
            "min": [
                -67,
                -30
            ],
            "type": "VEC2"
        },
        "accessor_76": {
            "bufferView": "bufferView_114",
            "byteOffset": 2062,
            "byteStride": 0,
            "componentType": 5123,
            "count": 480,
            "type": "SCALAR"
        },
        "accessor_78": {
            "bufferView": "bufferView_115",
            "byteOffset": 6184,
            "byteStride": 12,
            "componentType": 5126,
            "count": 99,
            "max": [
                3,
                2,
                0.6840400099754333
            ],
            "min": [
                -3,
                1.0336599349975586,
                -0.6840400099754333
            ],
            "type": "VEC3"
        },
        "accessor_80": {
            "bufferView": "bufferView_115",
            "byteOffset": 7372,
            "byteStride": 2,
            "componentType": 5120,
            "count": 99,
            "max": [
                60,
                127
            ],
            "min": [
                -60,
                67
            ],
            "type": "VEC2"
        },
        "accessor_96": {
            "bufferView": "bufferView_114",
            "byteOffset": 3022,
            "byteStride": 0,
            "componentType": 5123,
            "count": 60,
            "type": "SCALAR"
        },
        "accessor_98": {
            "bufferView": "bufferView_115",
            "byteOffset": 7572,
            "byteStride": 12,
            "componentType": 5126,
            "count": 15,
            "max": [
                10,
                5,
                12
            ],
            "min": [
                0,
                -5,
                0
            ],
            "type": "VEC3"
        }
    },
    "animations": {},
    "asset": {
        "generator": "collada2gltf@",
        "premultipliedAlpha": true,
        "profile": {
            "api": "WebGL",
            "version": "1.0.2"
        },
        "version": "1.0"
    },
    "bufferViews": {
        "bufferView_114": {
            "buffer": "example",
            "byteLength": 4080,
            "byteOffset": 0,
            "target": 34963
        },
        "bufferView_115": {
            "buffer": "example",
            "byteLength": 10052,
            "byteOffset": 4080,
            "target": 34962
        }
    },
    "buffers": {
        "example": {
            "byteLength": 14132,
            "type": "arraybuffer",
            "uri": "data:application/octet-stream;base64,"
        }
    },
    "materials": {
        "aCylinder-Cylinder-effect": {
            "name": "aCylinder-Cylinder-material",
            "technique": "technique0",
            "values": {
                "ambient": [
                    1,
                    1,
                    1,
                    1
                ],
                "diffuse": [
                    1,
                    1,
                    1,
                    1
                ],
                "emission": [
                    0,
                    0,
                    0,
                    1
                ],
                "shininess": 0,
                "specular": [
                    0,
                    0,
                    0,
                    1
                ]
            }
        },
        "aExtrusion-Extrusion-effect": {
            "name": "aExtrusion-Extrusion-material",
            "technique": "technique0",
            "values": {
                "ambient": [
                    0.6274510025978088,
                    0.1254899948835373,
                    0.9411770105361938,
                    1
                ],
                "diffuse": [
                    0.6274510025978088,
                    0.1254899948835373,
                    0.9411770105361938,
                    1
                ],
                "emission": [
                    0,
                    0,
                    0,
                    1
                ],
                "shininess": 0,
                "specular": [
                    0,
                    0,
                    0,
                    1
                ]
            }
        },
        "aHelix-Helix-effect": {
            "name": "aHelix-Helix-material",
            "technique": "technique1",
            "values": {
                "ambient": [
                    0,
                    0,
                    0,
                    1
                ],
                "diffuse": [
                    0,
                    0,
                    0,
                    1
                ],
                "emission": [
                    1,
                    1,
                    1,
                    1
                ],
                "shininess": 0,
                "specular": [
                    0,
                    0,
                    0,
                    1
                ]
            }
        },
        "aPolygon-PolygonMesh-effect": {
            "name": "aPolygon-PolygonMesh-material",
            "technique": "technique0",
            "values": {
                "ambient": [
                    1,
                    0,
                    0,
                    1
                ],
                "diffuse": [
                    1,
                    0,
                    0,
                    1
                ],
                "emission": [
                    0,
                    0,
                    0,
                    1
                ],
                "shininess": 0,
                "specular": [
                    0,
                    0,
                    0,
                    1
                ]
            }
        },
        "aRevolve-Revolve-effect": {
            "name": "aRevolve-Revolve-material",
            "technique": "technique0",
            "values": {
                "ambient": [
                    1,
                    0.6470590233802795,
                    0,
                    1
                ],
                "diffuse": [
                    1,
                    0.6470590233802795,
                    0,
                    1
                ],
                "emission": [
                    0,
                    0,
                    0,
                    1
                ],
                "shininess": 0,
                "specular": [
                    0,
                    0,
                    0,
                    1
                ]
            }
        },
        "aSkin-Skin-effect": {
            "name": "aSkin-Skin-material",
            "technique": "technique0",
            "values": {
                "ambient": [
                    0.7450979948043823,
                    0.7450979948043823,
                    0.7450979948043823,
                    1
                ],
                "diffuse": [
                    0.7450979948043823,
                    0.7450979948043823,
                    0.7450979948043823,
                    1
                ],
                "emission": [
                    0,
                    0,
                    0,
                    1
                ],
                "shininess": 0,
                "specular": [
                    0,
                    0,
                    0,
                    1
                ]
            }
        }
    },
    "meshes": {
        "aExtrusion-Extrusion-geometry": {
            "name": "aExtrusion-Extrusion-geometry",
            "primitives": [
                {
                    "attributes": {
                        "NORMAL": "accessor_40",
                        "POSITION": "accessor_38"
                    },
                    "indices": "accessor_36",
                    "material": "aExtrusion-Extrusion-effect",
                    "mode": 4
                }
            ]
        },
        "aHelix-Helix-geometry": {
            "name": "aHelix-Helix-geometry",
            "primitives": [
                {
                    "attributes": {
                        "POSITION": "accessor_112"
                    },
                    "indices": "accessor_110",
                    "material": "aHelix-Helix-effect",
                    "mode": 1
                }
            ]
        },
        "aPolygon-PolygonMesh-geometry": {
            "name": "aPolygon-PolygonMesh-geometry",
            "primitives": [
                {
                    "attributes": {
                        "NORMAL": "accessor_60",
                        "POSITION": "accessor_58"
                    },
                    "indices": "accessor_56",
                    "material": "aPolygon-PolygonMesh-effect",
                    "mode": 4
                }
            ]
        },
        "aRevolve-Revolve-geometry": {
            "name": "aRevolve-Revolve-geometry",
            "primitives": [
                {
                    "attributes": {
                        "NORMAL": "accessor_80",
                        "POSITION": "accessor_78"
                    },
                    "indices": "accessor_76",
                    "material": "aRevolve-Revolve-effect",
                    "mode": 4
                }
            ]
        },
        "aSkin-Skin-geometry": {
            "name": "aSkin-Skin-geometry",
            "primitives": [
                {
                    "attributes": {
                        "NORMAL": "accessor_100",
                        "POSITION": "accessor_98"
                    },
                    "indices": "accessor_96",
                    "material": "aSkin-Skin-effect",
                    "mode": 4
                }
            ]
        },
        "geometry-ID1": {
            "name": "geometry-ID1",
            "primitives": [
                {
                    "attributes": {
                        "NORMAL": "accessor_20",
                        "POSITION": "accessor_18"
                    },
                    "indices": "accessor_16",
                    "material": "aCylinder-Cylinder-effect",
                    "mode": 4
                }
            ]
        }
    },
    "nodes": {
        "node_0": {
            "children": [],
            "matrix": [
                1,
                0,
                0,
                0,
                0,
                1,
                0,
                0,
                0,
                0,
                1,
                0,
                0,
                0,
                0,
                1
            ],
            "meshes": [
                "geometry-ID1"
            ],
            "name": ""
        },
        "node_1": {
            "children": [],
            "matrix": [
                1,
                0,
                0,
                0,
                0,
                1,
                0,
                0,
                0,
                0,
                1,
                0,
                0,
                20,
                0,
                1
            ],
            "meshes": [
                "aExtrusion-Extrusion-geometry"
            ],
            "name": ""
        },
        "node_2": {
            "children": [],
            "matrix": [
                1,
                0,
                0,
                0,
                0,
                1,
                0,
                0,
                0,
                0,
                1,
                0,
                0,
                20,
                20,
                1
            ],
            "meshes": [
                "aPolygon-PolygonMesh-geometry"
            ],
            "name": ""
        },
        "node_3": {
            "children": [],
            "matrix": [
                1,
                0,
                0,
                0,
                0,
                1,
                0,
                0,
                0,
                0,
                1,
                0,
                20,
                20,
                20,
                1
            ],
            "meshes": [
                "aRevolve-Revolve-geometry"
            ],
            "name": ""
        },
        "node_4": {
            "children": [],
            "matrix": [
                1,
                0,
                0,
                0,
                0,
                1,
                0,
                0,
                0,
                0,
                1,
                0,
                20,
                20,
                0,
                1
            ],
            "meshes": [
                "aSkin-Skin-geometry"
            ],
            "name": ""
        },
        "node_5": {
            "children": [],
            "matrix": [
                1,
                0,
                0,
                0,
                0,
                1,
                0,
                0,
                0,
                0,
                1,
                0,
                0,
                0,
                20,
                1
            ],
            "meshes": [
                "aHelix-Helix-geometry"
            ],
            "name": ""
        },
        "node_6": {
            "children": [
                "node_0",
                "node_1",
                "node_2",
                "node_3",
                "node_4",
                "node_5"
            ],
            "matrix": [
                1,
                0,
                0,
                0,
                0,
                0,
                -1,
                0,
                0,
                1,
                0,
                0,
                0,
                0,
                0,
                1
            ],
            "name": "Y_UP_Transform"
        }
    },
    "programs": {
        "program_0": {
            "attributes": [
                "a_normal",
                "a_position"
            ],
            "fragmentShader": "example0FS",
            "vertexShader": "example0VS"
        },
        "program_1": {
            "attributes": [
                "a_position"
            ],
            "fragmentShader": "example1FS",
            "vertexShader": "example1VS"
        }
    },
    "scene": "defaultScene",
    "scenes": {
        "defaultScene": {
            "nodes": [
                "node_6"
            ]
        }
    },
    "shaders": {
        "example0FS": {
            "type": 35632,
            "uri": "data:text/plain;base64,"
        },
        "example0VS": {
            "type": 35633,
            "uri": "data:text/plain;base64,"
        },
        "example1FS": {
            "type": 35632,
            "uri": "data:text/plain;base64,"
        },
        "example1VS": {
            "type": 35633,
            "uri": "data:text/plain;base64,"
        }
    },
    "skins": {},
    "techniques": {
        "technique0": {
            "attributes": {
                "a_normal": "normal",
                "a_position": "position"
            },
            "parameters": {
                "ambient": {
                    "type": 35666
                },
                "diffuse": {
                    "type": 35666
                },
                "emission": {
                    "type": 35666
                },
                "modelViewMatrix": {
                    "semantic": "MODELVIEW",
                    "type": 35676
                },
                "normal": {
                    "semantic": "NORMAL",
                    "type": 35665
                },
                "normalMatrix": {
                    "semantic": "MODELVIEWINVERSETRANSPOSE",
                    "type": 35675
                },
                "position": {
                    "semantic": "POSITION",
                    "type": 35665
                },
                "projectionMatrix": {
                    "semantic": "PROJECTION",
                    "type": 35676
                },
                "shininess": {
                    "type": 5126
                },
                "specular": {
                    "type": 35666
                }
            },
            "program": "program_0",
            "states": {
                "enable": [
                    2929
                ]
            },
            "uniforms": {
                "u_ambient": "ambient",
                "u_diffuse": "diffuse",
                "u_emission": "emission",
                "u_modelViewMatrix": "modelViewMatrix",
                "u_normalMatrix": "normalMatrix",
                "u_projectionMatrix": "projectionMatrix",
                "u_shininess": "shininess",
                "u_specular": "specular"
            }
        },
        "technique1": {
            "attributes": {
                "a_position": "position"
            },
            "parameters": {
                "ambient": {
                    "type": 35666
                },
                "diffuse": {
                    "type": 35666
                },
                "emission": {
                    "type": 35666
                },
                "modelViewMatrix": {
                    "semantic": "MODELVIEW",
                    "type": 35676
                },
                "position": {
                    "semantic": "POSITION",
                    "type": 35665
                },
                "projectionMatrix": {
                    "semantic": "PROJECTION",
                    "type": 35676
                },
                "shininess": {
                    "type": 5126
                },
                "specular": {
                    "type": 35666
                }
            },
            "program": "program_1",
            "states": {
                "enable": [
                    2929
                ]
            },
            "uniforms": {
                "u_diffuse": "diffuse",
                "u_emission": "emission",
                "u_modelViewMatrix": "modelViewMatrix",
                "u_projectionMatrix": "projectionMatrix",
                "u_shininess": "shininess"
            }
        }
    }
}