{
    "accessors": {
        "accessor_16": {
            "bufferView": "bufferView_86",
            "byteOffset": 0,
            "byteStride": 0,
            "componentType": 5123,
            "count": 48768,
            "type": "SCALAR"
        },
        "accessor_18": {
            "bufferView": "bufferView_87",
            "byteOffset": 0,
            "byteStride": 12,
            "componentType": 5126,
            "count": 8256,
            "max": [
                10,
                10,
                10
            ],
            "min": [
                -10,
                -10,
                -10
            ],
            "type": "VEC3"
        },
        "accessor_20": {
            "bufferView": "bufferView_87",
            "byteOffset": 99072,
            "byteStride": 2,
            "componentType": 5120,
            "count": 8256,
            "max": [
                127,
                127
            ],
            "min": [
                -127,
                -127
            ],
            "type": "VEC2"
        },
        "accessor_36": {
            "bufferView": "bufferView_86",
            "byteOffset": 97536,
            "byteStride": 0,
            "componentType": 5123,
            "count": 12096,
            "type": "SCALAR"
        },
        "accessor_38": {
            "bufferView": "bufferView_87",
            "byteOffset": 115584,
            "byteStride": 12,
            "componentType": 5126,
            "count": 2080,
            "max": [
                7,
                7,
                7
            ],
            "min": [
                -7,
                -7,
                -7
            ],
            "type": "VEC3"
        },
        "accessor_40": {
            "bufferView": "bufferView_87",
            "byteOffset": 140544,
            "byteStride": 2,
            "componentType": 5120,
            "count": 2080,
            "max": [
                127,
                127
            ],
            "min": [
                -127,
                -127
            ],
            "type": "VEC2"
        },
        "accessor_56": {
            "bufferView": "bufferView_86",
            "byteOffset": 121728,
            "byteStride": 0,
            "componentType": 5123,
            "count": 12096,
            "type": "SCALAR"
        },
        "accessor_58": {
            "bufferView": "bufferView_87",
            "byteOffset": 144704,
            "byteStride": 12,
            "componentType": 5126,
            "count": 2080,
            "max": [
                4,
                4,
                4
            ],
            "min": [
                -4,
                -4,
                -4
            ],
            "type": "VEC3"
        },
        "accessor_60": {
            "bufferView": "bufferView_87",
            "byteOffset": 169664,
            "byteStride": 2,
            "componentType": 5120,
            "count": 2080,
            "max": [
                127,
                127
            ],
            "min": [
                -127,
                -127
            ],
            "type": "VEC2"
        },
        "accessor_76": {
            "bufferView": "bufferView_86",
            "byteOffset": 145920,
            "byteStride": 0,
            "componentType": 5123,
            "count": 12096,
            "type": "SCALAR"
        },
        "accessor_78": {
            "bufferView": "bufferView_87",
            "byteOffset": 173824,
            "byteStride": 12,
            "componentType": 5126,
            "count": 2080,
            "max": [
                14,
                14,
                14
            ],
            "min": [
                -14,
                -14,
                -14
            ],
            "type": "VEC3"
        },
        "accessor_80": {
            "bufferView": "bufferView_87",
            "byteOffset": 198784,
            "byteStride": 2,
            "componentType": 5120,
            "count": 2080,
            "max": [
                127,
                127
            ],
            "min": [
                -127,
                -127
            ],
            "type": "VEC2"
        },
        "animAccessor_0": {
            "bufferView": "bufferView_85",
            "byteOffset": 0,
            "componentType": 5126,
            "count": 2,
            "type": "SCALAR"
        },
        "animAccessor_1": {
            "bufferView": "bufferView_85",
            "byteOffset": 8,
            "componentType": 5126,
            "count": 2,
            "type": "VEC3"
        }
    },
    "animations": {
        "animation_0": {
            "channels": [
                {
                    "sampler": "animation_0_scale_sampler",
                    "target": {
                        "id": "Body",
                        "path": "scale"
                    }
                }
            ],
            "parameters": {
                "TIME": "animAccessor_0",
                "scale": "animAccessor_1"
            },
            "samplers": {
                "animation_0_scale_sampler": {
                    "input": "TIME",
                    "interpolation": "LINEAR",
                    "output": "scale"
                }
            }
        }
    },
    "asset": {
        "generator": "collada2gltf@",
        "premultipliedAlpha": true,
        "profile": {
            "api": "WebGL",
            "version": "1.0.2"
        },
        "version": "1.0"
    },
    "bufferViews": {
        "bufferView_85": {
            "buffer": "explosion",
            "byteLength": 32,
            "byteOffset": 0
        },
        "bufferView_86": {
            "buffer": "explosion",
            "byteLength": 170112,
            "byteOffset": 32,
            "target": 34963
        },
        "bufferView_87": {
            "buffer": "explosion",
            "byteLength": 202944,
            "byteOffset": 170144,
            "target": 34962
        }
    },
    "buffers": {
        "explosion": {
            "byteLength": 373088,
            "type": "arraybuffer",
            "uri": "data:application/octet-stream;base64,"
        }
    },
    "materials": {
        "OuterShell-Sphere-effect": {
            "name": "OuterShell-Sphere-material",
            "technique": "technique0",
            "values": {
                "ambient": [
                    1,
                    1,
                    0,
                    1
                ],
                "diffuse": [
                    1,
                    1,
                    0,
                    1
                ],
                "emission": [
                    0,
                    0,
                    0,
                    1
                ],
                "shininess": 0,
                "specular": [
                    0,
                    0,
                    0,
                    1
                ],
                "transparency": 0.20000000298023224
            }
        },
        "Sphere1-Sphere-effect": {
            "name": "Sphere1-Sphere-material",
            "technique": "technique0",
            "values": {
                "ambient": [
                    1,
                    0.6470590233802795,
                    0,
                    1
                ],
                "diffuse": [
                    1,
                    0.6470590233802795,
                    0,
                    1
                ],
                "emission": [
                    0,
                    0,
                    0,
                    1
                ],
                "shininess": 0,
                "specular": [
                    0,
                    0,
                    0,
                    1
                ],
                "transparency": 0.30000001192092896
            }
        },
        "Sphere2-Sphere-effect": {
            "name": "Sphere2-Sphere-material",
            "technique": "technique0",
            "values": {
                "ambient": [
                    1,
                    0,
                    0,
                    1
                ],
                "diffuse": [
                    1,
                    0,
                    0,
                    1
                ],
                "emission": [
                    1,
                    0,
                    0,
                    1
                ],
                "shininess": 0,
                "specular": [
                    0,
                    0,
                    0,
                    1
                ],
                "transparency": 0.4000000059604645
            }
        },
        "Sphere3-Sphere-effect": {
            "name": "Sphere3-Sphere-material",
            "technique": "technique0",
            "values": {
                "ambient": [
                    0.9411770105361938,
                    0.9725490212440491,
                    1,
                    1
                ],
                "diffuse": [
                    0.9411770105361938,
                    0.9725490212440491,
                    1,
                    1
                ],
                "emission": [
                    0,
                    0,
                    0,
                    1
                ],
                "shininess": 0,
                "specular": [
                    0,
                    0,
                    0,
                    1
                ],
                "transparency": 0.20000000298023224
            }
        }
    },
    "meshes": {
        "OuterShell-Sphere-geometry": {
            "name": "OuterShell-Sphere-geometry",
            "primitives": [
                {
                    "attributes": {
                        "NORMAL": "accessor_20",
                        "POSITION": "accessor_18"
                    },
                    "indices": "accessor_16",
                    "material": "OuterShell-Sphere-effect",
                    "mode": 4
                }
            ]
        },
        "Sphere1-Sphere-geometry": {
            "name": "Sphere1-Sphere-geometry",
            "primitives": [
                {
                    "attributes": {
                        "NORMAL": "accessor_40",
                        "POSITION": "accessor_38"
                    },
                    "indices": "accessor_36",
                    "material": "Sphere1-Sphere-effect",
                    "mode": 4
                }
            ]
        },
        "Sphere2-Sphere-geometry": {
            "name": "Sphere2-Sphere-geometry",
            "primitives": [
                {
                    "attributes": {
                        "NORMAL": "accessor_60",
                        "POSITION": "accessor_58"
                    },
                    "indices": "accessor_56",
                    "material": "Sphere2-Sphere-effect",
                    "mode": 4
                }
            ]
        },
        "Sphere3-Sphere-geometry": {
            "name": "Sphere3-Sphere-geometry",
            "primitives": [
                {
                    "attributes": {
                        "NORMAL": "accessor_80",
                        "POSITION": "accessor_78"
                    },
                    "indices": "accessor_76",
                    "material": "Sphere3-Sphere-effect",
                    "mode": 4
                }
            ]
        }
    },
    "nodes": {
        "Body": {
            "children": [
                "node_1",
                "node_2",
                "node_3",
                "node_4"
            ],
            "name": "Body",
            "rotation": [
                0,
                0,
                0,
                1
            ],
            "scale": [
                0.14999999105930328,
                0.14999999105930328,
                0.14999999105930328
            ],
            "translation": [
                0,
                0,
                0
            ]
        },
        "node_1": {
            "children": [],
            "matrix": [
                1,
                0,
                0,
                0,
                0,
                1,
                0,
                0,
                0,
                0,
                1,
                0,
                0,
                0,
                0,
                1
            ],
            "meshes": [
                "OuterShell-Sphere-geometry"
            ],
            "name": ""
        },
        "node_2": {
            "children": [],
            "matrix": [
                1,
                0,
                0,
                0,
                0,
                1,
                0,
                0,
                0,
                0,
                1,
                0,
                0,
                0,
                0,
                1
            ],
            "meshes": [
                "Sphere1-Sphere-geometry"
            ],
            "name": ""
        },
        "node_3": {
            "children": [],
            "matrix": [
                1,
                0,
                0,
                0,
                0,
                1,
                0,
                0,
                0,
                0,
                1,
                0,
                0,
                0,
                0,
                1
            ],
            "meshes": [
                "Sphere2-Sphere-geometry"
            ],
            "name": ""
        },
        "node_4": {
            "children": [],
            "matrix": [
                1,
                0,
                0,
                0,
                0,
                1,
                0,
                0,
                0,
                0,
                1,
                0,
                0,
                0,
                0,
                1
            ],
            "meshes": [
                "Sphere3-Sphere-geometry"
            ],
            "name": ""
        },
        "node_5": {
            "children": [
                "Body"
            ],
            "matrix": [
                1,
                0,
                0,
                0,
                0,
                0,
                -1,
                0,
                0,
                1,
                0,
                0,
                0,
                0,
                0,
                1
            ],
            "name": "Y_UP_Transform"
        }
    },
    "programs": {
        "program_0": {
            "attributes": [
                "a_normal",
                "a_position"
            ],
            "fragmentShader": "explosion0FS",
            "vertexShader": "explosion0VS"
        }
    },
    "scene": "defaultScene",
    "scenes": {
        "defaultScene": {
            "nodes": [
                "node_5"
            ]
        }
    },
    "shaders": {
        "explosion0FS": {
            "type": 35632,
            "uri": "data:text/plain;base64,"
        },
        "explosion0VS": {
            "type": 35633,
            "uri": "data:text/plain;base64,"
        }
    },
    "skins": {},
    "techniques": {
        "technique0": {
            "attributes": {
                "a_normal": "normal",
                "a_position": "position"
            },
            "parameters": {
                "ambient": {
                    "type": 35666
                },
                "diffuse": {
                    "type": 35666
                },
                "emission": {
                    "type": 35666
                },
                "modelViewMatrix": {
                    "semantic": "MODELVIEW",
                    "type": 35676
                },
                "normal": {
                    "semantic": "NORMAL",
                    "type": 35665
                },
                "normalMatrix": {
                    "semantic": "MODELVIEWINVERSETRANSPOSE",
                    "type": 35675
                },
                "position": {
                    "semantic": "POSITION",
                    "type": 35665
                },
                "projectionMatrix": {
                    "semantic": "PROJECTION",
                    "type": 35676
                },
                "shininess": {
                    "type": 5126
                },
                "specular": {
                    "type": 35666
                },
                "transparency": {
                    "type": 5126
                }
            },
            "program": "program_0",
            "states": {
                "enable": [
                    2929,
                    3042
                ],
                "functions": {
                    "blendEquationSeparate": [
                        32774,
                        32774
                    ],
                    "blendFuncSeparate": [
                        1,
                        771,
                        1,
                        771
                    ],
                    "depthMask": false
                }
            },
            "uniforms": {
                "u_ambient": "ambient",
                "u_diffuse": "diffuse",
                "u_emission": "emission",
                "u_modelViewMatrix": "modelViewMatrix",
                "u_normalMatrix": "normalMatrix",
                "u_projectionMatrix": "projectionMatrix",
                "u_shininess": "shininess",
                "u_specular": "specular",
                "u_transparency": "transparency"
            }
        }
    }
}